ISO-10303-21;
HEADER;
/* Generated by software containing ST-Developer
 * from STEP Tools, Inc. (www.steptools.com) 
 */
/* OPTION: using custom renumber hook */

FILE_DESCRIPTION(
/* description */ ('STEP AP242 Edition 2',
'CAx-IF Rec.Pracs.---Representation and Presentation of Product Manufa
cturing Information (PMI)---4.0---2014-10-13',
'CAx-IF Rec.Pracs.---3D Tessellated Geometry---0.4---2014-09-14','2;1',
'CAx-IF Rec.Pracs.---User Defined Attributes---1.5---2016-08-15'),
/* implementation_level */ '2;1');

FILE_NAME(
/* name */ 'Main Shell-',
/* time_stamp */ '2026-08-20T00:14:25Z',
/* author */ (''),
/* organization */ (''),
/* preprocessor_version */ 'ST-DEVELOPER v20',
/* originating_system */ 'ONSHAPE BY PTC INC, 1.219',
/* authorisation */ '  ');

FILE_SCHEMA (('AP242_MANAGED_MODEL_BASED_3D_ENGINEERING_MIM_LF { 1 0 10303 442 3 1 4 }'));
ENDSEC;

DATA;
#10=SHAPE_REPRESENTATION_RELATIONSHIP('','',#582,#11);
#11=ADVANCED_BREP_SHAPE_REPRESENTATION('',(#580),#968);
#12=LINE('',#819,#59);
#13=LINE('',#822,#60);
#14=LINE('',#824,#61);
#15=LINE('',#826,#62);
#16=LINE('',#828,#63);
#17=LINE('',#832,#64);
#18=LINE('',#837,#65);
#19=LINE('',#841,#66);
#20=LINE('',#845,#67);
#21=LINE('',#849,#68);
#22=LINE('',#853,#69);
#23=LINE('',#857,#70);
#24=LINE('',#861,#71);
#25=LINE('',#871,#72);
#26=LINE('',#873,#73);
#27=LINE('',#875,#74);
#28=LINE('',#877,#75);
#29=LINE('',#879,#76);
#30=LINE('',#881,#77);
#31=LINE('',#883,#78);
#32=LINE('',#885,#79);
#33=LINE('',#887,#80);
#34=LINE('',#889,#81);
#35=LINE('',#891,#82);
#36=LINE('',#894,#83);
#37=LINE('',#895,#84);
#38=LINE('',#897,#85);
#39=LINE('',#899,#86);
#40=LINE('',#901,#87);
#41=LINE('',#903,#88);
#42=LINE('',#906,#89);
#43=LINE('',#907,#90);
#44=LINE('',#909,#91);
#45=LINE('',#912,#92);
#46=LINE('',#913,#93);
#47=LINE('',#915,#94);
#48=LINE('',#917,#95);
#49=LINE('',#919,#96);
#50=LINE('',#921,#97);
#51=LINE('',#923,#98);
#52=LINE('',#925,#99);
#53=LINE('',#927,#100);
#54=LINE('',#930,#101);
#55=LINE('',#931,#102);
#56=LINE('',#939,#103);
#57=LINE('',#941,#104);
#58=LINE('',#943,#105);
#59=VECTOR('',#658,1.);
#60=VECTOR('',#659,1.);
#61=VECTOR('',#660,1.);
#62=VECTOR('',#661,1.);
#63=VECTOR('',#662,1.);
#64=VECTOR('',#667,1.);
#65=VECTOR('',#670,1.);
#66=VECTOR('',#673,1.);
#67=VECTOR('',#676,1.);
#68=VECTOR('',#679,1.);
#69=VECTOR('',#682,1.);
#70=VECTOR('',#685,1.);
#71=VECTOR('',#688,1.);
#72=VECTOR('',#699,1.);
#73=VECTOR('',#700,1.);
#74=VECTOR('',#701,1.);
#75=VECTOR('',#704,1.);
#76=VECTOR('',#705,1.);
#77=VECTOR('',#708,1.);
#78=VECTOR('',#709,1.);
#79=VECTOR('',#710,1.);
#80=VECTOR('',#713,1.);
#81=VECTOR('',#716,1.);
#82=VECTOR('',#719,1.);
#83=VECTOR('',#720,1.);
#84=VECTOR('',#721,1.);
#85=VECTOR('',#724,1.);
#86=VECTOR('',#725,1.);
#87=VECTOR('',#726,1.);
#88=VECTOR('',#729,1.);
#89=VECTOR('',#730,1.);
#90=VECTOR('',#731,1.);
#91=VECTOR('',#734,1.);
#92=VECTOR('',#735,1.);
#93=VECTOR('',#736,1.);
#94=VECTOR('',#739,1.);
#95=VECTOR('',#740,1.);
#96=VECTOR('',#741,1.);
#97=VECTOR('',#744,1.);
#98=VECTOR('',#745,1.);
#99=VECTOR('',#746,1.);
#100=VECTOR('',#749,1.);
#101=VECTOR('',#750,1.);
#102=VECTOR('',#751,1.);
#103=VECTOR('',#762,1.);
#104=VECTOR('',#763,1.);
#105=VECTOR('',#764,1.);
#106=PLANE('',#590);
#107=PLANE('',#591);
#108=PLANE('',#604);
#109=PLANE('',#605);
#110=PLANE('',#606);
#111=PLANE('',#607);
#112=PLANE('',#608);
#113=PLANE('',#609);
#114=PLANE('',#610);
#115=PLANE('',#611);
#116=PLANE('',#612);
#117=PLANE('',#613);
#118=PLANE('',#614);
#119=PLANE('',#615);
#120=PLANE('',#620);
#121=PLANE('',#625);
#122=ORIENTED_EDGE('',*,*,#272,.T.);
#123=ORIENTED_EDGE('',*,*,#273,.F.);
#124=ORIENTED_EDGE('',*,*,#274,.T.);
#125=ORIENTED_EDGE('',*,*,#275,.F.);
#126=ORIENTED_EDGE('',*,*,#274,.F.);
#127=ORIENTED_EDGE('',*,*,#272,.F.);
#128=ORIENTED_EDGE('',*,*,#276,.T.);
#129=ORIENTED_EDGE('',*,*,#277,.T.);
#130=ORIENTED_EDGE('',*,*,#278,.F.);
#131=ORIENTED_EDGE('',*,*,#279,.T.);
#132=ORIENTED_EDGE('',*,*,#280,.T.);
#133=ORIENTED_EDGE('',*,*,#275,.T.);
#134=ORIENTED_EDGE('',*,*,#273,.T.);
#135=ORIENTED_EDGE('',*,*,#281,.T.);
#136=ORIENTED_EDGE('',*,*,#282,.F.);
#137=ORIENTED_EDGE('',*,*,#283,.T.);
#138=ORIENTED_EDGE('',*,*,#284,.T.);
#139=ORIENTED_EDGE('',*,*,#285,.T.);
#140=ORIENTED_EDGE('',*,*,#286,.F.);
#141=ORIENTED_EDGE('',*,*,#287,.T.);
#142=ORIENTED_EDGE('',*,*,#288,.F.);
#143=ORIENTED_EDGE('',*,*,#289,.T.);
#144=ORIENTED_EDGE('',*,*,#290,.F.);
#145=ORIENTED_EDGE('',*,*,#291,.T.);
#146=ORIENTED_EDGE('',*,*,#292,.F.);
#147=ORIENTED_EDGE('',*,*,#293,.T.);
#148=ORIENTED_EDGE('',*,*,#294,.T.);
#149=ORIENTED_EDGE('',*,*,#295,.T.);
#150=ORIENTED_EDGE('',*,*,#296,.T.);
#151=ORIENTED_EDGE('',*,*,#297,.T.);
#152=ORIENTED_EDGE('',*,*,#298,.T.);
#153=ORIENTED_EDGE('',*,*,#299,.T.);
#154=ORIENTED_EDGE('',*,*,#300,.T.);
#155=ORIENTED_EDGE('',*,*,#276,.F.);
#156=ORIENTED_EDGE('',*,*,#301,.F.);
#157=ORIENTED_EDGE('',*,*,#302,.T.);
#158=ORIENTED_EDGE('',*,*,#303,.T.);
#159=ORIENTED_EDGE('',*,*,#277,.F.);
#160=ORIENTED_EDGE('',*,*,#303,.F.);
#161=ORIENTED_EDGE('',*,*,#304,.T.);
#162=ORIENTED_EDGE('',*,*,#305,.T.);
#163=ORIENTED_EDGE('',*,*,#279,.F.);
#164=ORIENTED_EDGE('',*,*,#306,.F.);
#165=ORIENTED_EDGE('',*,*,#307,.T.);
#166=ORIENTED_EDGE('',*,*,#308,.T.);
#167=ORIENTED_EDGE('',*,*,#280,.F.);
#168=ORIENTED_EDGE('',*,*,#308,.F.);
#169=ORIENTED_EDGE('',*,*,#309,.T.);
#170=ORIENTED_EDGE('',*,*,#301,.T.);
#171=ORIENTED_EDGE('',*,*,#306,.T.);
#172=ORIENTED_EDGE('',*,*,#278,.T.);
#173=ORIENTED_EDGE('',*,*,#305,.F.);
#174=ORIENTED_EDGE('',*,*,#310,.T.);
#175=ORIENTED_EDGE('',*,*,#311,.T.);
#176=ORIENTED_EDGE('',*,*,#312,.T.);
#177=ORIENTED_EDGE('',*,*,#294,.F.);
#178=ORIENTED_EDGE('',*,*,#313,.T.);
#179=ORIENTED_EDGE('',*,*,#292,.T.);
#180=ORIENTED_EDGE('',*,*,#314,.T.);
#181=ORIENTED_EDGE('',*,*,#315,.F.);
#182=ORIENTED_EDGE('',*,*,#316,.T.);
#183=ORIENTED_EDGE('',*,*,#317,.F.);
#184=ORIENTED_EDGE('',*,*,#318,.T.);
#185=ORIENTED_EDGE('',*,*,#290,.T.);
#186=ORIENTED_EDGE('',*,*,#319,.T.);
#187=ORIENTED_EDGE('',*,*,#320,.F.);
#188=ORIENTED_EDGE('',*,*,#321,.T.);
#189=ORIENTED_EDGE('',*,*,#288,.T.);
#190=ORIENTED_EDGE('',*,*,#322,.T.);
#191=ORIENTED_EDGE('',*,*,#286,.T.);
#192=ORIENTED_EDGE('',*,*,#323,.T.);
#193=ORIENTED_EDGE('',*,*,#324,.F.);
#194=ORIENTED_EDGE('',*,*,#325,.T.);
#195=ORIENTED_EDGE('',*,*,#284,.F.);
#196=ORIENTED_EDGE('',*,*,#326,.T.);
#197=ORIENTED_EDGE('',*,*,#327,.T.);
#198=ORIENTED_EDGE('',*,*,#328,.T.);
#199=ORIENTED_EDGE('',*,*,#329,.F.);
#200=ORIENTED_EDGE('',*,*,#330,.T.);
#201=ORIENTED_EDGE('',*,*,#282,.T.);
#202=ORIENTED_EDGE('',*,*,#331,.T.);
#203=ORIENTED_EDGE('',*,*,#332,.T.);
#204=ORIENTED_EDGE('',*,*,#299,.F.);
#205=ORIENTED_EDGE('',*,*,#333,.T.);
#206=ORIENTED_EDGE('',*,*,#298,.F.);
#207=ORIENTED_EDGE('',*,*,#296,.F.);
#208=ORIENTED_EDGE('',*,*,#334,.T.);
#209=ORIENTED_EDGE('',*,*,#335,.T.);
#210=ORIENTED_EDGE('',*,*,#336,.T.);
#211=ORIENTED_EDGE('',*,*,#337,.T.);
#212=ORIENTED_EDGE('',*,*,#281,.F.);
#213=ORIENTED_EDGE('',*,*,#338,.T.);
#214=ORIENTED_EDGE('',*,*,#300,.F.);
#215=ORIENTED_EDGE('',*,*,#337,.F.);
#216=ORIENTED_EDGE('',*,*,#327,.F.);
#217=ORIENTED_EDGE('',*,*,#339,.T.);
#218=ORIENTED_EDGE('',*,*,#329,.T.);
#219=ORIENTED_EDGE('',*,*,#340,.T.);
#220=ORIENTED_EDGE('',*,*,#335,.F.);
#221=ORIENTED_EDGE('',*,*,#341,.T.);
#222=ORIENTED_EDGE('',*,*,#311,.F.);
#223=ORIENTED_EDGE('',*,*,#342,.T.);
#224=ORIENTED_EDGE('',*,*,#315,.T.);
#225=ORIENTED_EDGE('',*,*,#343,.T.);
#226=ORIENTED_EDGE('',*,*,#317,.T.);
#227=ORIENTED_EDGE('',*,*,#344,.T.);
#228=ORIENTED_EDGE('',*,*,#320,.T.);
#229=ORIENTED_EDGE('',*,*,#345,.T.);
#230=ORIENTED_EDGE('',*,*,#324,.T.);
#231=ORIENTED_EDGE('',*,*,#346,.T.);
#232=ORIENTED_EDGE('',*,*,#333,.F.);
#233=ORIENTED_EDGE('',*,*,#332,.F.);
#234=ORIENTED_EDGE('',*,*,#307,.F.);
#235=ORIENTED_EDGE('',*,*,#310,.F.);
#236=ORIENTED_EDGE('',*,*,#304,.F.);
#237=ORIENTED_EDGE('',*,*,#302,.F.);
#238=ORIENTED_EDGE('',*,*,#309,.F.);
#239=ORIENTED_EDGE('',*,*,#338,.F.);
#240=ORIENTED_EDGE('',*,*,#339,.F.);
#241=ORIENTED_EDGE('',*,*,#326,.F.);
#242=ORIENTED_EDGE('',*,*,#283,.F.);
#243=ORIENTED_EDGE('',*,*,#330,.F.);
#244=ORIENTED_EDGE('',*,*,#346,.F.);
#245=ORIENTED_EDGE('',*,*,#323,.F.);
#246=ORIENTED_EDGE('',*,*,#285,.F.);
#247=ORIENTED_EDGE('',*,*,#328,.F.);
#248=ORIENTED_EDGE('',*,*,#341,.F.);
#249=ORIENTED_EDGE('',*,*,#334,.F.);
#250=ORIENTED_EDGE('',*,*,#295,.F.);
#251=ORIENTED_EDGE('',*,*,#312,.F.);
#252=ORIENTED_EDGE('',*,*,#340,.F.);
#253=ORIENTED_EDGE('',*,*,#331,.F.);
#254=ORIENTED_EDGE('',*,*,#297,.F.);
#255=ORIENTED_EDGE('',*,*,#336,.F.);
#256=ORIENTED_EDGE('',*,*,#343,.F.);
#257=ORIENTED_EDGE('',*,*,#314,.F.);
#258=ORIENTED_EDGE('',*,*,#291,.F.);
#259=ORIENTED_EDGE('',*,*,#318,.F.);
#260=ORIENTED_EDGE('',*,*,#342,.F.);
#261=ORIENTED_EDGE('',*,*,#313,.F.);
#262=ORIENTED_EDGE('',*,*,#293,.F.);
#263=ORIENTED_EDGE('',*,*,#316,.F.);
#264=ORIENTED_EDGE('',*,*,#344,.F.);
#265=ORIENTED_EDGE('',*,*,#319,.F.);
#266=ORIENTED_EDGE('',*,*,#289,.F.);
#267=ORIENTED_EDGE('',*,*,#321,.F.);
#268=ORIENTED_EDGE('',*,*,#345,.F.);
#269=ORIENTED_EDGE('',*,*,#322,.F.);
#270=ORIENTED_EDGE('',*,*,#287,.F.);
#271=ORIENTED_EDGE('',*,*,#325,.F.);
#272=EDGE_CURVE('',#347,#347,#401,.T.);
#273=EDGE_CURVE('',#348,#348,#402,.T.);
#274=EDGE_CURVE('',#349,#349,#403,.T.);
#275=EDGE_CURVE('',#350,#350,#404,.T.);
#276=EDGE_CURVE('',#351,#352,#12,.T.);
#277=EDGE_CURVE('',#352,#353,#13,.T.);
#278=EDGE_CURVE('',#354,#353,#14,.T.);
#279=EDGE_CURVE('',#354,#355,#15,.T.);
#280=EDGE_CURVE('',#355,#351,#16,.T.);
#281=EDGE_CURVE('',#356,#356,#405,.T.);
#282=EDGE_CURVE('',#357,#358,#17,.T.);
#283=EDGE_CURVE('',#357,#359,#406,.F.);
#284=EDGE_CURVE('',#359,#360,#18,.T.);
#285=EDGE_CURVE('',#360,#361,#407,.F.);
#286=EDGE_CURVE('',#362,#361,#19,.T.);
#287=EDGE_CURVE('',#362,#363,#408,.F.);
#288=EDGE_CURVE('',#364,#363,#20,.T.);
#289=EDGE_CURVE('',#364,#365,#409,.F.);
#290=EDGE_CURVE('',#366,#365,#21,.T.);
#291=EDGE_CURVE('',#366,#367,#410,.F.);
#292=EDGE_CURVE('',#368,#367,#22,.T.);
#293=EDGE_CURVE('',#368,#369,#411,.F.);
#294=EDGE_CURVE('',#369,#370,#23,.T.);
#295=EDGE_CURVE('',#370,#371,#412,.F.);
#296=EDGE_CURVE('',#371,#372,#24,.T.);
#297=EDGE_CURVE('',#372,#358,#413,.F.);
#298=EDGE_CURVE('',#373,#373,#414,.T.);
#299=EDGE_CURVE('',#374,#374,#415,.T.);
#300=EDGE_CURVE('',#375,#375,#416,.T.);
#301=EDGE_CURVE('',#376,#351,#25,.T.);
#302=EDGE_CURVE('',#376,#377,#26,.T.);
#303=EDGE_CURVE('',#377,#352,#27,.T.);
#304=EDGE_CURVE('',#377,#378,#28,.T.);
#305=EDGE_CURVE('',#378,#353,#29,.T.);
#306=EDGE_CURVE('',#379,#354,#30,.T.);
#307=EDGE_CURVE('',#379,#380,#31,.T.);
#308=EDGE_CURVE('',#380,#355,#32,.T.);
#309=EDGE_CURVE('',#380,#376,#33,.T.);
#310=EDGE_CURVE('',#378,#379,#34,.T.);
#311=EDGE_CURVE('',#381,#382,#35,.T.);
#312=EDGE_CURVE('',#382,#370,#36,.T.);
#313=EDGE_CURVE('',#369,#381,#37,.F.);
#314=EDGE_CURVE('',#367,#383,#38,.F.);
#315=EDGE_CURVE('',#384,#383,#39,.T.);
#316=EDGE_CURVE('',#384,#368,#40,.T.);
#317=EDGE_CURVE('',#385,#386,#41,.T.);
#318=EDGE_CURVE('',#385,#366,#42,.T.);
#319=EDGE_CURVE('',#365,#386,#43,.F.);
#320=EDGE_CURVE('',#387,#388,#44,.T.);
#321=EDGE_CURVE('',#387,#364,#45,.T.);
#322=EDGE_CURVE('',#363,#388,#46,.F.);
#323=EDGE_CURVE('',#361,#389,#47,.F.);
#324=EDGE_CURVE('',#390,#389,#48,.T.);
#325=EDGE_CURVE('',#390,#362,#49,.T.);
#326=EDGE_CURVE('',#359,#391,#50,.F.);
#327=EDGE_CURVE('',#391,#392,#51,.T.);
#328=EDGE_CURVE('',#392,#360,#52,.T.);
#329=EDGE_CURVE('',#393,#394,#53,.T.);
#330=EDGE_CURVE('',#393,#357,#54,.T.);
#331=EDGE_CURVE('',#358,#394,#55,.F.);
#332=EDGE_CURVE('',#395,#395,#417,.T.);
#333=EDGE_CURVE('',#396,#396,#418,.T.);
#334=EDGE_CURVE('',#371,#397,#56,.F.);
#335=EDGE_CURVE('',#397,#398,#57,.T.);
#336=EDGE_CURVE('',#398,#372,#58,.T.);
#337=EDGE_CURVE('',#399,#399,#419,.T.);
#338=EDGE_CURVE('',#400,#400,#420,.T.);
#339=EDGE_CURVE('',#391,#393,#421,.T.);
#340=EDGE_CURVE('',#394,#398,#422,.T.);
#341=EDGE_CURVE('',#397,#382,#423,.T.);
#342=EDGE_CURVE('',#381,#384,#424,.T.);
#343=EDGE_CURVE('',#383,#385,#425,.T.);
#344=EDGE_CURVE('',#386,#387,#426,.T.);
#345=EDGE_CURVE('',#388,#390,#427,.T.);
#346=EDGE_CURVE('',#389,#392,#428,.T.);
#347=VERTEX_POINT('',#810);
#348=VERTEX_POINT('',#812);
#349=VERTEX_POINT('',#815);
#350=VERTEX_POINT('',#817);
#351=VERTEX_POINT('',#820);
#352=VERTEX_POINT('',#821);
#353=VERTEX_POINT('',#823);
#354=VERTEX_POINT('',#825);
#355=VERTEX_POINT('',#827);
#356=VERTEX_POINT('',#831);
#357=VERTEX_POINT('',#833);
#358=VERTEX_POINT('',#834);
#359=VERTEX_POINT('',#836);
#360=VERTEX_POINT('',#838);
#361=VERTEX_POINT('',#840);
#362=VERTEX_POINT('',#842);
#363=VERTEX_POINT('',#844);
#364=VERTEX_POINT('',#846);
#365=VERTEX_POINT('',#848);
#366=VERTEX_POINT('',#850);
#367=VERTEX_POINT('',#852);
#368=VERTEX_POINT('',#854);
#369=VERTEX_POINT('',#856);
#370=VERTEX_POINT('',#858);
#371=VERTEX_POINT('',#860);
#372=VERTEX_POINT('',#862);
#373=VERTEX_POINT('',#865);
#374=VERTEX_POINT('',#867);
#375=VERTEX_POINT('',#869);
#376=VERTEX_POINT('',#872);
#377=VERTEX_POINT('',#874);
#378=VERTEX_POINT('',#878);
#379=VERTEX_POINT('',#882);
#380=VERTEX_POINT('',#884);
#381=VERTEX_POINT('',#892);
#382=VERTEX_POINT('',#893);
#383=VERTEX_POINT('',#898);
#384=VERTEX_POINT('',#900);
#385=VERTEX_POINT('',#904);
#386=VERTEX_POINT('',#905);
#387=VERTEX_POINT('',#910);
#388=VERTEX_POINT('',#911);
#389=VERTEX_POINT('',#916);
#390=VERTEX_POINT('',#918);
#391=VERTEX_POINT('',#922);
#392=VERTEX_POINT('',#924);
#393=VERTEX_POINT('',#928);
#394=VERTEX_POINT('',#929);
#395=VERTEX_POINT('',#934);
#396=VERTEX_POINT('',#937);
#397=VERTEX_POINT('',#940);
#398=VERTEX_POINT('',#942);
#399=VERTEX_POINT('',#946);
#400=VERTEX_POINT('',#949);
#401=CIRCLE('',#585,0.0017);
#402=CIRCLE('',#586,0.0017);
#403=CIRCLE('',#588,0.0017);
#404=CIRCLE('',#589,0.0017);
#405=CIRCLE('',#592,0.0017);
#406=CIRCLE('',#593,0.001);
#407=CIRCLE('',#594,0.001);
#408=CIRCLE('',#595,0.001);
#409=CIRCLE('',#596,0.001);
#410=CIRCLE('',#597,0.001);
#411=CIRCLE('',#598,0.001);
#412=CIRCLE('',#599,0.001);
#413=CIRCLE('',#600,0.001);
#414=CIRCLE('',#601,0.0017);
#415=CIRCLE('',#602,0.0017);
#416=CIRCLE('',#603,0.0017);
#417=CIRCLE('',#617,0.0017);
#418=CIRCLE('',#619,0.0017);
#419=CIRCLE('',#622,0.0017);
#420=CIRCLE('',#624,0.0017);
#421=CIRCLE('',#626,0.001);
#422=CIRCLE('',#627,0.001);
#423=CIRCLE('',#628,0.001);
#424=CIRCLE('',#629,0.001);
#425=CIRCLE('',#630,0.001);
#426=CIRCLE('',#631,0.001);
#427=CIRCLE('',#632,0.001);
#428=CIRCLE('',#633,0.001);
#429=EDGE_LOOP('',(#122));
#430=EDGE_LOOP('',(#123));
#431=EDGE_LOOP('',(#124));
#432=EDGE_LOOP('',(#125));
#433=EDGE_LOOP('',(#126));
#434=EDGE_LOOP('',(#127));
#435=EDGE_LOOP('',(#128,#129,#130,#131,#132));
#436=EDGE_LOOP('',(#133));
#437=EDGE_LOOP('',(#134));
#438=EDGE_LOOP('',(#135));
#439=EDGE_LOOP('',(#136,#137,#138,#139,#140,#141,#142,#143,#144,#145,#146,
#147,#148,#149,#150,#151));
#440=EDGE_LOOP('',(#152));
#441=EDGE_LOOP('',(#153));
#442=EDGE_LOOP('',(#154));
#443=EDGE_LOOP('',(#155,#156,#157,#158));
#444=EDGE_LOOP('',(#159,#160,#161,#162));
#445=EDGE_LOOP('',(#163,#164,#165,#166));
#446=EDGE_LOOP('',(#167,#168,#169,#170));
#447=EDGE_LOOP('',(#171,#172,#173,#174));
#448=EDGE_LOOP('',(#175,#176,#177,#178));
#449=EDGE_LOOP('',(#179,#180,#181,#182));
#450=EDGE_LOOP('',(#183,#184,#185,#186));
#451=EDGE_LOOP('',(#187,#188,#189,#190));
#452=EDGE_LOOP('',(#191,#192,#193,#194));
#453=EDGE_LOOP('',(#195,#196,#197,#198));
#454=EDGE_LOOP('',(#199,#200,#201,#202));
#455=EDGE_LOOP('',(#203));
#456=EDGE_LOOP('',(#204));
#457=EDGE_LOOP('',(#205));
#458=EDGE_LOOP('',(#206));
#459=EDGE_LOOP('',(#207,#208,#209,#210));
#460=EDGE_LOOP('',(#211));
#461=EDGE_LOOP('',(#212));
#462=EDGE_LOOP('',(#213));
#463=EDGE_LOOP('',(#214));
#464=EDGE_LOOP('',(#215));
#465=EDGE_LOOP('',(#216,#217,#218,#219,#220,#221,#222,#223,#224,#225,#226,
#227,#228,#229,#230,#231));
#466=EDGE_LOOP('',(#232));
#467=EDGE_LOOP('',(#233));
#468=EDGE_LOOP('',(#234,#235,#236,#237,#238));
#469=EDGE_LOOP('',(#239));
#470=EDGE_LOOP('',(#240,#241,#242,#243));
#471=EDGE_LOOP('',(#244,#245,#246,#247));
#472=EDGE_LOOP('',(#248,#249,#250,#251));
#473=EDGE_LOOP('',(#252,#253,#254,#255));
#474=EDGE_LOOP('',(#256,#257,#258,#259));
#475=EDGE_LOOP('',(#260,#261,#262,#263));
#476=EDGE_LOOP('',(#264,#265,#266,#267));
#477=EDGE_LOOP('',(#268,#269,#270,#271));
#478=FACE_BOUND('',#429,.T.);
#479=FACE_BOUND('',#430,.T.);
#480=FACE_BOUND('',#431,.T.);
#481=FACE_BOUND('',#432,.T.);
#482=FACE_BOUND('',#433,.T.);
#483=FACE_BOUND('',#434,.T.);
#484=FACE_BOUND('',#435,.T.);
#485=FACE_BOUND('',#436,.T.);
#486=FACE_BOUND('',#437,.T.);
#487=FACE_BOUND('',#438,.T.);
#488=FACE_BOUND('',#439,.T.);
#489=FACE_BOUND('',#440,.T.);
#490=FACE_BOUND('',#441,.T.);
#491=FACE_BOUND('',#442,.T.);
#492=FACE_BOUND('',#443,.T.);
#493=FACE_BOUND('',#444,.T.);
#494=FACE_BOUND('',#445,.T.);
#495=FACE_BOUND('',#446,.T.);
#496=FACE_BOUND('',#447,.T.);
#497=FACE_BOUND('',#448,.T.);
#498=FACE_BOUND('',#449,.T.);
#499=FACE_BOUND('',#450,.T.);
#500=FACE_BOUND('',#451,.T.);
#501=FACE_BOUND('',#452,.T.);
#502=FACE_BOUND('',#453,.T.);
#503=FACE_BOUND('',#454,.T.);
#504=FACE_BOUND('',#455,.T.);
#505=FACE_BOUND('',#456,.T.);
#506=FACE_BOUND('',#457,.T.);
#507=FACE_BOUND('',#458,.T.);
#508=FACE_BOUND('',#459,.T.);
#509=FACE_BOUND('',#460,.T.);
#510=FACE_BOUND('',#461,.T.);
#511=FACE_BOUND('',#462,.T.);
#512=FACE_BOUND('',#463,.T.);
#513=FACE_BOUND('',#464,.T.);
#514=FACE_BOUND('',#465,.T.);
#515=FACE_BOUND('',#466,.T.);
#516=FACE_BOUND('',#467,.T.);
#517=FACE_BOUND('',#468,.T.);
#518=FACE_BOUND('',#469,.T.);
#519=FACE_BOUND('',#470,.T.);
#520=FACE_BOUND('',#471,.T.);
#521=FACE_BOUND('',#472,.T.);
#522=FACE_BOUND('',#473,.T.);
#523=FACE_BOUND('',#474,.T.);
#524=FACE_BOUND('',#475,.T.);
#525=FACE_BOUND('',#476,.T.);
#526=FACE_BOUND('',#477,.T.);
#527=CYLINDRICAL_SURFACE('',#584,0.0017);
#528=CYLINDRICAL_SURFACE('',#587,0.0017);
#529=CYLINDRICAL_SURFACE('',#616,0.0017);
#530=CYLINDRICAL_SURFACE('',#618,0.0017);
#531=CYLINDRICAL_SURFACE('',#621,0.0017);
#532=CYLINDRICAL_SURFACE('',#623,0.0017);
#533=CYLINDRICAL_SURFACE('',#634,0.001);
#534=CYLINDRICAL_SURFACE('',#635,0.001);
#535=CYLINDRICAL_SURFACE('',#636,0.001);
#536=CYLINDRICAL_SURFACE('',#637,0.001);
#537=CYLINDRICAL_SURFACE('',#638,0.001);
#538=CYLINDRICAL_SURFACE('',#639,0.001);
#539=CYLINDRICAL_SURFACE('',#640,0.001);
#540=CYLINDRICAL_SURFACE('',#641,0.001);
#541=ADVANCED_FACE('',(#478,#479),#527,.F.);
#542=ADVANCED_FACE('',(#480,#481),#528,.F.);
#543=ADVANCED_FACE('',(#482,#483,#484),#106,.T.);
#544=ADVANCED_FACE('',(#485,#486,#487,#488,#489,#490,#491),#107,.F.);
#545=ADVANCED_FACE('',(#492),#108,.T.);
#546=ADVANCED_FACE('',(#493),#109,.T.);
#547=ADVANCED_FACE('',(#494),#110,.T.);
#548=ADVANCED_FACE('',(#495),#111,.T.);
#549=ADVANCED_FACE('',(#496),#112,.T.);
#550=ADVANCED_FACE('',(#497),#113,.T.);
#551=ADVANCED_FACE('',(#498),#114,.F.);
#552=ADVANCED_FACE('',(#499),#115,.F.);
#553=ADVANCED_FACE('',(#500),#116,.F.);
#554=ADVANCED_FACE('',(#501),#117,.F.);
#555=ADVANCED_FACE('',(#502),#118,.T.);
#556=ADVANCED_FACE('',(#503),#119,.F.);
#557=ADVANCED_FACE('',(#504,#505),#529,.F.);
#558=ADVANCED_FACE('',(#506,#507),#530,.F.);
#559=ADVANCED_FACE('',(#508),#120,.T.);
#560=ADVANCED_FACE('',(#509,#510),#531,.F.);
#561=ADVANCED_FACE('',(#511,#512),#532,.F.);
#562=ADVANCED_FACE('',(#513,#514,#515,#516,#517,#518),#121,.T.);
#563=ADVANCED_FACE('',(#519),#533,.T.);
#564=ADVANCED_FACE('',(#520),#534,.T.);
#565=ADVANCED_FACE('',(#521),#535,.T.);
#566=ADVANCED_FACE('',(#522),#536,.T.);
#567=ADVANCED_FACE('',(#523),#537,.T.);
#568=ADVANCED_FACE('',(#524),#538,.T.);
#569=ADVANCED_FACE('',(#525),#539,.T.);
#570=ADVANCED_FACE('',(#526),#540,.T.);
#571=CLOSED_SHELL('',(#541,#542,#543,#544,#545,#546,#547,#548,#549,#550,
#551,#552,#553,#554,#555,#556,#557,#558,#559,#560,#561,#562,#563,#564,#565,
#566,#567,#568,#569,#570));
#572=STYLED_ITEM('',(#573),#580);
#573=PRESENTATION_STYLE_ASSIGNMENT((#574));
#574=SURFACE_STYLE_USAGE(.BOTH.,#575);
#575=SURFACE_SIDE_STYLE('',(#576));
#576=SURFACE_STYLE_FILL_AREA(#577);
#577=FILL_AREA_STYLE('',(#578));
#578=FILL_AREA_STYLE_COLOUR('',#579);
#579=COLOUR_RGB('',0.615686274509804,0.811764705882353,0.929411764705882);
#580=MANIFOLD_SOLID_BREP('Part 1',#571);
#581=SHAPE_DEFINITION_REPRESENTATION(#973,#582);
#582=SHAPE_REPRESENTATION('Part 1',(#583),#968);
#583=AXIS2_PLACEMENT_3D('',#807,#642,#643);
#584=AXIS2_PLACEMENT_3D('',#808,#644,#645);
#585=AXIS2_PLACEMENT_3D('',#809,#646,#647);
#586=AXIS2_PLACEMENT_3D('',#811,#648,#649);
#587=AXIS2_PLACEMENT_3D('',#813,#650,#651);
#588=AXIS2_PLACEMENT_3D('',#814,#652,#653);
#589=AXIS2_PLACEMENT_3D('',#816,#654,#655);
#590=AXIS2_PLACEMENT_3D('',#818,#656,#657);
#591=AXIS2_PLACEMENT_3D('',#829,#663,#664);
#592=AXIS2_PLACEMENT_3D('',#830,#665,#666);
#593=AXIS2_PLACEMENT_3D('',#835,#668,#669);
#594=AXIS2_PLACEMENT_3D('',#839,#671,#672);
#595=AXIS2_PLACEMENT_3D('',#843,#674,#675);
#596=AXIS2_PLACEMENT_3D('',#847,#677,#678);
#597=AXIS2_PLACEMENT_3D('',#851,#680,#681);
#598=AXIS2_PLACEMENT_3D('',#855,#683,#684);
#599=AXIS2_PLACEMENT_3D('',#859,#686,#687);
#600=AXIS2_PLACEMENT_3D('',#863,#689,#690);
#601=AXIS2_PLACEMENT_3D('',#864,#691,#692);
#602=AXIS2_PLACEMENT_3D('',#866,#693,#694);
#603=AXIS2_PLACEMENT_3D('',#868,#695,#696);
#604=AXIS2_PLACEMENT_3D('',#870,#697,#698);
#605=AXIS2_PLACEMENT_3D('',#876,#702,#703);
#606=AXIS2_PLACEMENT_3D('',#880,#706,#707);
#607=AXIS2_PLACEMENT_3D('',#886,#711,#712);
#608=AXIS2_PLACEMENT_3D('',#888,#714,#715);
#609=AXIS2_PLACEMENT_3D('',#890,#717,#718);
#610=AXIS2_PLACEMENT_3D('',#896,#722,#723);
#611=AXIS2_PLACEMENT_3D('',#902,#727,#728);
#612=AXIS2_PLACEMENT_3D('',#908,#732,#733);
#613=AXIS2_PLACEMENT_3D('',#914,#737,#738);
#614=AXIS2_PLACEMENT_3D('',#920,#742,#743);
#615=AXIS2_PLACEMENT_3D('',#926,#747,#748);
#616=AXIS2_PLACEMENT_3D('',#932,#752,#753);
#617=AXIS2_PLACEMENT_3D('',#933,#754,#755);
#618=AXIS2_PLACEMENT_3D('',#935,#756,#757);
#619=AXIS2_PLACEMENT_3D('',#936,#758,#759);
#620=AXIS2_PLACEMENT_3D('',#938,#760,#761);
#621=AXIS2_PLACEMENT_3D('',#944,#765,#766);
#622=AXIS2_PLACEMENT_3D('',#945,#767,#768);
#623=AXIS2_PLACEMENT_3D('',#947,#769,#770);
#624=AXIS2_PLACEMENT_3D('',#948,#771,#772);
#625=AXIS2_PLACEMENT_3D('',#950,#773,#774);
#626=AXIS2_PLACEMENT_3D('',#951,#775,#776);
#627=AXIS2_PLACEMENT_3D('',#952,#777,#778);
#628=AXIS2_PLACEMENT_3D('',#953,#779,#780);
#629=AXIS2_PLACEMENT_3D('',#954,#781,#782);
#630=AXIS2_PLACEMENT_3D('',#955,#783,#784);
#631=AXIS2_PLACEMENT_3D('',#956,#785,#786);
#632=AXIS2_PLACEMENT_3D('',#957,#787,#788);
#633=AXIS2_PLACEMENT_3D('',#958,#789,#790);
#634=AXIS2_PLACEMENT_3D('',#959,#791,#792);
#635=AXIS2_PLACEMENT_3D('',#960,#793,#794);
#636=AXIS2_PLACEMENT_3D('',#961,#795,#796);
#637=AXIS2_PLACEMENT_3D('',#962,#797,#798);
#638=AXIS2_PLACEMENT_3D('',#963,#799,#800);
#639=AXIS2_PLACEMENT_3D('',#964,#801,#802);
#640=AXIS2_PLACEMENT_3D('',#965,#803,#804);
#641=AXIS2_PLACEMENT_3D('',#966,#805,#806);
#642=DIRECTION('',(0.,0.,1.));
#643=DIRECTION('',(1.,0.,0.));
#644=DIRECTION('',(0.,0.,-1.));
#645=DIRECTION('',(-1.,0.,0.));
#646=DIRECTION('',(0.,0.,1.));
#647=DIRECTION('',(1.,0.,0.));
#648=DIRECTION('',(0.,0.,1.));
#649=DIRECTION('',(1.,0.,0.));
#650=DIRECTION('',(0.,0.,-1.));
#651=DIRECTION('',(-1.,0.,0.));
#652=DIRECTION('',(0.,0.,1.));
#653=DIRECTION('',(1.,0.,0.));
#654=DIRECTION('',(0.,0.,1.));
#655=DIRECTION('',(1.,0.,0.));
#656=DIRECTION('',(0.,0.,1.));
#657=DIRECTION('',(1.,0.,0.));
#658=DIRECTION('',(-1.06998941369379E-5,-0.999999999942756,0.));
#659=DIRECTION('',(2.89120579329468E-16,-1.,0.));
#660=DIRECTION('',(-1.,-1.44560289664734E-16,0.));
#661=DIRECTION('',(0.,1.,0.));
#662=DIRECTION('',(-0.99999239824022,0.00389916167564105,0.));
#663=DIRECTION('',(0.,0.,1.));
#664=DIRECTION('',(1.,0.,0.));
#665=DIRECTION('',(0.,0.,1.));
#666=DIRECTION('',(1.,0.,0.));
#667=DIRECTION('',(-1.,0.,0.));
#668=DIRECTION('',(0.,0.,1.));
#669=DIRECTION('',(1.,0.,0.));
#670=DIRECTION('',(0.707106781186546,-0.707106781186549,0.));
#671=DIRECTION('',(0.,0.,1.));
#672=DIRECTION('',(1.,0.,0.));
#673=DIRECTION('',(0.,1.,0.));
#674=DIRECTION('',(0.,0.,1.));
#675=DIRECTION('',(1.,0.,0.));
#676=DIRECTION('',(0.707106781186547,0.707106781186548,0.));
#677=DIRECTION('',(0.,0.,1.));
#678=DIRECTION('',(1.,0.,0.));
#679=DIRECTION('',(1.,0.,0.));
#680=DIRECTION('',(0.,0.,1.));
#681=DIRECTION('',(1.,0.,0.));
#682=DIRECTION('',(0.707106781186547,-0.707106781186548,0.));
#683=DIRECTION('',(0.,0.,1.));
#684=DIRECTION('',(1.,0.,0.));
#685=DIRECTION('',(0.,1.,0.));
#686=DIRECTION('',(0.,0.,1.));
#687=DIRECTION('',(1.,0.,0.));
#688=DIRECTION('',(0.707106781186548,0.707106781186547,0.));
#689=DIRECTION('',(0.,0.,1.));
#690=DIRECTION('',(1.,0.,0.));
#691=DIRECTION('',(0.,0.,1.));
#692=DIRECTION('',(1.,0.,0.));
#693=DIRECTION('',(0.,0.,1.));
#694=DIRECTION('',(1.,0.,0.));
#695=DIRECTION('',(0.,0.,1.));
#696=DIRECTION('',(1.,0.,0.));
#697=DIRECTION('',(0.999999999942756,-1.06998941369379E-5,0.));
#698=DIRECTION('',(1.06998941369379E-5,0.999999999942756,0.));
#699=DIRECTION('',(0.,0.,-1.));
#700=DIRECTION('',(-1.06998941369379E-5,-0.999999999942756,0.));
#701=DIRECTION('',(0.,0.,-1.));
#702=DIRECTION('',(1.,2.89120579329468E-16,0.));
#703=DIRECTION('',(-2.89120579329468E-16,1.,0.));
#704=DIRECTION('',(2.89120579329468E-16,-1.,0.));
#705=DIRECTION('',(0.,0.,-1.));
#706=DIRECTION('',(-1.,0.,0.));
#707=DIRECTION('',(0.,0.,1.));
#708=DIRECTION('',(0.,0.,-1.));
#709=DIRECTION('',(0.,1.,0.));
#710=DIRECTION('',(0.,0.,-1.));
#711=DIRECTION('',(-0.00389916167564105,-0.99999239824022,0.));
#712=DIRECTION('',(0.99999239824022,-0.00389916167564105,0.));
#713=DIRECTION('',(-0.99999239824022,0.00389916167564105,0.));
#714=DIRECTION('',(0.,1.,0.));
#715=DIRECTION('',(0.,0.,1.));
#716=DIRECTION('',(1.,0.,0.));
#717=DIRECTION('',(-1.,0.,0.));
#718=DIRECTION('',(0.,0.,1.));
#719=DIRECTION('',(0.,1.,0.));
#720=DIRECTION('',(0.,0.,-1.));
#721=DIRECTION('',(0.,0.,-1.));
#722=DIRECTION('',(0.707106781186548,0.707106781186547,0.));
#723=DIRECTION('',(-0.707106781186547,0.707106781186548,0.));
#724=DIRECTION('',(0.,0.,-1.));
#725=DIRECTION('',(0.707106781186547,-0.707106781186548,0.));
#726=DIRECTION('',(0.,0.,-1.));
#727=DIRECTION('',(0.,1.,0.));
#728=DIRECTION('',(0.,0.,1.));
#729=DIRECTION('',(1.,0.,0.));
#730=DIRECTION('',(0.,0.,-1.));
#731=DIRECTION('',(0.,0.,-1.));
#732=DIRECTION('',(-0.707106781186548,0.707106781186547,0.));
#733=DIRECTION('',(-0.707106781186547,-0.707106781186548,0.));
#734=DIRECTION('',(0.707106781186547,0.707106781186548,0.));
#735=DIRECTION('',(0.,0.,-1.));
#736=DIRECTION('',(0.,0.,-1.));
#737=DIRECTION('',(-1.,0.,0.));
#738=DIRECTION('',(0.,0.,1.));
#739=DIRECTION('',(0.,0.,-1.));
#740=DIRECTION('',(0.,1.,0.));
#741=DIRECTION('',(0.,0.,-1.));
#742=DIRECTION('',(0.707106781186549,0.707106781186546,0.));
#743=DIRECTION('',(-0.707106781186546,0.707106781186549,0.));
#744=DIRECTION('',(0.,0.,-1.));
#745=DIRECTION('',(0.707106781186546,-0.707106781186549,0.));
#746=DIRECTION('',(0.,0.,-1.));
#747=DIRECTION('',(0.,-1.,0.));
#748=DIRECTION('',(0.,0.,-1.));
#749=DIRECTION('',(-1.,0.,0.));
#750=DIRECTION('',(0.,0.,-1.));
#751=DIRECTION('',(0.,0.,-1.));
#752=DIRECTION('',(0.,0.,-1.));
#753=DIRECTION('',(-1.,0.,0.));
#754=DIRECTION('',(0.,0.,1.));
#755=DIRECTION('',(1.,0.,0.));
#756=DIRECTION('',(0.,0.,-1.));
#757=DIRECTION('',(-1.,0.,0.));
#758=DIRECTION('',(0.,0.,1.));
#759=DIRECTION('',(1.,0.,0.));
#760=DIRECTION('',(-0.707106781186547,0.707106781186548,0.));
#761=DIRECTION('',(-0.707106781186548,-0.707106781186547,0.));
#762=DIRECTION('',(0.,0.,-1.));
#763=DIRECTION('',(0.707106781186548,0.707106781186547,0.));
#764=DIRECTION('',(0.,0.,-1.));
#765=DIRECTION('',(0.,0.,-1.));
#766=DIRECTION('',(-1.,0.,0.));
#767=DIRECTION('',(0.,0.,1.));
#768=DIRECTION('',(1.,0.,0.));
#769=DIRECTION('',(0.,0.,-1.));
#770=DIRECTION('',(-1.,0.,0.));
#771=DIRECTION('',(0.,0.,1.));
#772=DIRECTION('',(1.,0.,0.));
#773=DIRECTION('',(0.,0.,1.));
#774=DIRECTION('',(1.,0.,0.));
#775=DIRECTION('',(0.,0.,1.));
#776=DIRECTION('',(1.,0.,0.));
#777=DIRECTION('',(0.,0.,1.));
#778=DIRECTION('',(1.,0.,0.));
#779=DIRECTION('',(0.,0.,1.));
#780=DIRECTION('',(1.,0.,0.));
#781=DIRECTION('',(0.,0.,1.));
#782=DIRECTION('',(1.,0.,0.));
#783=DIRECTION('',(0.,0.,1.));
#784=DIRECTION('',(1.,0.,0.));
#785=DIRECTION('',(0.,0.,1.));
#786=DIRECTION('',(1.,0.,0.));
#787=DIRECTION('',(0.,0.,1.));
#788=DIRECTION('',(1.,0.,0.));
#789=DIRECTION('',(0.,0.,1.));
#790=DIRECTION('',(1.,0.,0.));
#791=DIRECTION('',(0.,0.,1.));
#792=DIRECTION('',(1.,0.,0.));
#793=DIRECTION('',(0.,0.,1.));
#794=DIRECTION('',(1.,0.,0.));
#795=DIRECTION('',(0.,0.,-1.));
#796=DIRECTION('',(-1.,0.,0.));
#797=DIRECTION('',(0.,0.,1.));
#798=DIRECTION('',(1.,0.,0.));
#799=DIRECTION('',(0.,0.,-1.));
#800=DIRECTION('',(-1.,0.,0.));
#801=DIRECTION('',(0.,0.,1.));
#802=DIRECTION('',(1.,0.,0.));
#803=DIRECTION('',(0.,0.,-1.));
#804=DIRECTION('',(-1.,0.,0.));
#805=DIRECTION('',(0.,0.,-1.));
#806=DIRECTION('',(-1.,0.,0.));
#807=CARTESIAN_POINT('',(0.,0.,0.));
#808=CARTESIAN_POINT('',(0.075,0.0495,0.005));
#809=CARTESIAN_POINT('',(0.075,0.0495,0.005));
#810=CARTESIAN_POINT('',(0.0767,0.0495,0.005));
#811=CARTESIAN_POINT('',(0.075,0.0495,0.));
#812=CARTESIAN_POINT('',(0.0767,0.0495,0.));
#813=CARTESIAN_POINT('',(0.00850009897402077,0.0092499999994705,0.005));
#814=CARTESIAN_POINT('',(0.00850009897402077,0.0092499999994705,0.005));
#815=CARTESIAN_POINT('',(0.0102000989740208,0.0092499999994705,0.005));
#816=CARTESIAN_POINT('',(0.00850009897402077,0.0092499999994705,0.));
#817=CARTESIAN_POINT('',(0.0102000989740208,0.0092499999994705,0.));
#818=CARTESIAN_POINT('',(0.040875,0.0295,0.005));
#819=CARTESIAN_POINT('',(-0.00299966647278966,0.0311710757185187,0.005));
#820=CARTESIAN_POINT('',(-0.00299933294557931,0.0623421514370375,0.005));
#821=CARTESIAN_POINT('',(-0.003,1.7347234759768E-17,0.005));
#822=CARTESIAN_POINT('',(-0.003,-0.0015,0.005));
#823=CARTESIAN_POINT('',(-0.003,-0.003,0.005));
#824=CARTESIAN_POINT('',(-0.0015,-0.003,0.005));
#825=CARTESIAN_POINT('',(0.08475,-0.003,0.005));
#826=CARTESIAN_POINT('',(0.08475,0.0295,0.005));
#827=CARTESIAN_POINT('',(0.08475,0.062,0.005));
#828=CARTESIAN_POINT('',(0.0408753335272104,0.0621710757185188,0.005));
#829=CARTESIAN_POINT('',(0.040875,0.0295,0.));
#830=CARTESIAN_POINT('',(0.0867499847964805,0.0639922016766487,0.));
#831=CARTESIAN_POINT('',(0.0884499847964805,0.0639922016766487,0.));
#832=CARTESIAN_POINT('',(0.040875,0.072,0.));
#833=CARTESIAN_POINT('',(0.0843357864376269,0.072,0.));
#834=CARTESIAN_POINT('',(-0.00258578643762688,0.072,0.));
#835=CARTESIAN_POINT('',(0.0843357864376269,0.071,0.));
#836=CARTESIAN_POINT('',(0.0850428932188135,0.0717071067811866,0.));
#837=CARTESIAN_POINT('',(0.08975,0.067,0.));
#838=CARTESIAN_POINT('',(0.0944571067811865,0.0622928932188135,0.));
#839=CARTESIAN_POINT('',(0.09375,0.0615857864376269,0.));
#840=CARTESIAN_POINT('',(0.09475,0.0615857864376269,0.));
#841=CARTESIAN_POINT('',(0.09475,0.0295,0.));
#842=CARTESIAN_POINT('',(0.09475,-0.00258578643762691,0.));
#843=CARTESIAN_POINT('',(0.09375,-0.00258578643762691,0.));
#844=CARTESIAN_POINT('',(0.0944571067811865,-0.00329289321881345,0.));
#845=CARTESIAN_POINT('',(0.08975,-0.008,0.));
#846=CARTESIAN_POINT('',(0.0850428932188135,-0.0127071067811865,0.));
#847=CARTESIAN_POINT('',(0.0843357864376269,-0.012,0.));
#848=CARTESIAN_POINT('',(0.0843357864376269,-0.013,0.));
#849=CARTESIAN_POINT('',(0.040875,-0.013,0.));
#850=CARTESIAN_POINT('',(-0.00258578643762692,-0.013,0.));
#851=CARTESIAN_POINT('',(-0.00258578643762692,-0.012,0.));
#852=CARTESIAN_POINT('',(-0.00329289321881346,-0.0127071067811865,0.));
#853=CARTESIAN_POINT('',(-0.008,-0.008,0.));
#854=CARTESIAN_POINT('',(-0.0127071067811865,-0.00329289321881345,0.));
#855=CARTESIAN_POINT('',(-0.012,-0.0025857864376269,0.));
#856=CARTESIAN_POINT('',(-0.013,-0.00258578643762691,0.));
#857=CARTESIAN_POINT('',(-0.013,0.031,0.));
#858=CARTESIAN_POINT('',(-0.013,0.0615857864376269,0.));
#859=CARTESIAN_POINT('',(-0.012,0.0615857864376269,0.));
#860=CARTESIAN_POINT('',(-0.0127071067811865,0.0622928932188135,0.));
#861=CARTESIAN_POINT('',(-0.008,0.067,0.));
#862=CARTESIAN_POINT('',(-0.00329289321881343,0.0717071067811866,0.));
#863=CARTESIAN_POINT('',(-0.00258578643762689,0.071,0.));
#864=CARTESIAN_POINT('',(-0.005,-0.005,0.));
#865=CARTESIAN_POINT('',(-0.0033,-0.005,0.));
#866=CARTESIAN_POINT('',(0.08675,-0.005,0.));
#867=CARTESIAN_POINT('',(0.08845,-0.005,0.));
#868=CARTESIAN_POINT('',(-0.00499931154567655,0.0643421728367113,0.));
#869=CARTESIAN_POINT('',(-0.00329931154567655,0.0643421728367113,0.));
#870=CARTESIAN_POINT('',(-0.00299966647278966,0.0311710757185187,0.00966));
#871=CARTESIAN_POINT('',(-0.00299933294557931,0.0623421514370375,0.00966));
#872=CARTESIAN_POINT('',(-0.00299933294557931,0.0623421514370375,0.00966));
#873=CARTESIAN_POINT('',(-0.00299966647278966,0.0311710757185187,0.00966));
#874=CARTESIAN_POINT('',(-0.003,1.7347234759768E-17,0.00966));
#875=CARTESIAN_POINT('',(-0.003,1.7347234759768E-17,0.00966));
#876=CARTESIAN_POINT('',(-0.003,-0.0015,0.00966));
#877=CARTESIAN_POINT('',(-0.003,-0.0015,0.00966));
#878=CARTESIAN_POINT('',(-0.003,-0.003,0.00966));
#879=CARTESIAN_POINT('',(-0.003,-0.003,0.00966));
#880=CARTESIAN_POINT('',(0.08475,0.0295,0.00966));
#881=CARTESIAN_POINT('',(0.08475,-0.003,0.00966));
#882=CARTESIAN_POINT('',(0.08475,-0.003,0.00966));
#883=CARTESIAN_POINT('',(0.08475,0.0295,0.00966));
#884=CARTESIAN_POINT('',(0.08475,0.062,0.00966));
#885=CARTESIAN_POINT('',(0.08475,0.062,0.00966));
#886=CARTESIAN_POINT('',(0.0408753335272104,0.0621710757185188,0.00966));
#887=CARTESIAN_POINT('',(0.0408753335272104,0.0621710757185188,0.00966));
#888=CARTESIAN_POINT('',(0.042375,-0.003,0.00966));
#889=CARTESIAN_POINT('',(0.042375,-0.003,0.00966));
#890=CARTESIAN_POINT('',(-0.013,0.031,0.00966));
#891=CARTESIAN_POINT('',(-0.013,0.031,0.00966));
#892=CARTESIAN_POINT('',(-0.013,-0.00258578643762691,0.00966));
#893=CARTESIAN_POINT('',(-0.013,0.0615857864376269,0.00966));
#894=CARTESIAN_POINT('',(-0.013,0.0615857864376269,0.00966));
#895=CARTESIAN_POINT('',(-0.013,-0.0025857864376269,0.00966));
#896=CARTESIAN_POINT('',(-0.008,-0.008,0.00966));
#897=CARTESIAN_POINT('',(-0.00329289321881346,-0.0127071067811865,0.00966));
#898=CARTESIAN_POINT('',(-0.00329289321881346,-0.0127071067811865,0.00966));
#899=CARTESIAN_POINT('',(-0.008,-0.008,0.00966));
#900=CARTESIAN_POINT('',(-0.0127071067811865,-0.00329289321881345,0.00966));
#901=CARTESIAN_POINT('',(-0.0127071067811865,-0.00329289321881345,0.));
#902=CARTESIAN_POINT('',(0.040875,-0.013,0.00966));
#903=CARTESIAN_POINT('',(0.040875,-0.013,0.00966));
#904=CARTESIAN_POINT('',(-0.00258578643762692,-0.013,0.00966));
#905=CARTESIAN_POINT('',(0.0843357864376269,-0.013,0.00966));
#906=CARTESIAN_POINT('',(-0.00258578643762692,-0.013,0.00966));
#907=CARTESIAN_POINT('',(0.0843357864376269,-0.013,0.00966));
#908=CARTESIAN_POINT('',(0.08975,-0.008,0.00966));
#909=CARTESIAN_POINT('',(0.08975,-0.008,0.00966));
#910=CARTESIAN_POINT('',(0.0850428932188135,-0.0127071067811865,0.00966));
#911=CARTESIAN_POINT('',(0.0944571067811865,-0.00329289321881345,0.00966));
#912=CARTESIAN_POINT('',(0.0850428932188135,-0.0127071067811865,0.00966));
#913=CARTESIAN_POINT('',(0.0944571067811865,-0.00329289321881345,0.00966));
#914=CARTESIAN_POINT('',(0.09475,0.0295,0.00966));
#915=CARTESIAN_POINT('',(0.09475,0.0615857864376269,0.00966));
#916=CARTESIAN_POINT('',(0.09475,0.0615857864376269,0.00966));
#917=CARTESIAN_POINT('',(0.09475,0.0295,0.00966));
#918=CARTESIAN_POINT('',(0.09475,-0.00258578643762691,0.00966));
#919=CARTESIAN_POINT('',(0.09475,-0.00258578643762691,0.00966));
#920=CARTESIAN_POINT('',(0.08975,0.067,0.00966));
#921=CARTESIAN_POINT('',(0.0850428932188135,0.0717071067811866,0.00966));
#922=CARTESIAN_POINT('',(0.0850428932188135,0.0717071067811866,0.00966));
#923=CARTESIAN_POINT('',(0.08975,0.067,0.00966));
#924=CARTESIAN_POINT('',(0.0944571067811865,0.0622928932188135,0.00966));
#925=CARTESIAN_POINT('',(0.0944571067811865,0.0622928932188135,0.));
#926=CARTESIAN_POINT('',(0.040875,0.072,0.00966));
#927=CARTESIAN_POINT('',(0.040875,0.072,0.00966));
#928=CARTESIAN_POINT('',(0.0843357864376269,0.072,0.00966));
#929=CARTESIAN_POINT('',(-0.00258578643762688,0.072,0.00966));
#930=CARTESIAN_POINT('',(0.0843357864376269,0.072,0.));
#931=CARTESIAN_POINT('',(-0.00258578643762689,0.072,0.00966));
#932=CARTESIAN_POINT('',(0.08675,-0.005,0.00966));
#933=CARTESIAN_POINT('',(0.08675,-0.005,0.00966));
#934=CARTESIAN_POINT('',(0.08845,-0.005,0.00966));
#935=CARTESIAN_POINT('',(-0.005,-0.005,0.00966));
#936=CARTESIAN_POINT('',(-0.005,-0.005,0.00966));
#937=CARTESIAN_POINT('',(-0.0033,-0.005,0.00966));
#938=CARTESIAN_POINT('',(-0.008,0.067,0.00966));
#939=CARTESIAN_POINT('',(-0.0127071067811865,0.0622928932188135,0.00966));
#940=CARTESIAN_POINT('',(-0.0127071067811865,0.0622928932188135,0.00966));
#941=CARTESIAN_POINT('',(-0.008,0.067,0.00966));
#942=CARTESIAN_POINT('',(-0.00329289321881343,0.0717071067811866,0.00966));
#943=CARTESIAN_POINT('',(-0.00329289321881343,0.0717071067811866,0.));
#944=CARTESIAN_POINT('',(0.0867499847964805,0.0639922016766487,0.00966));
#945=CARTESIAN_POINT('',(0.0867499847964805,0.0639922016766487,0.00966));
#946=CARTESIAN_POINT('',(0.0884499847964805,0.0639922016766487,0.00966));
#947=CARTESIAN_POINT('',(-0.00499931154567655,0.0643421728367113,0.00966));
#948=CARTESIAN_POINT('',(-0.00499931154567655,0.0643421728367113,0.00966));
#949=CARTESIAN_POINT('',(-0.00329931154567655,0.0643421728367113,0.00966));
#950=CARTESIAN_POINT('',(0.040875,0.0295,0.00966));
#951=CARTESIAN_POINT('',(0.0843357864376269,0.071,0.00966));
#952=CARTESIAN_POINT('',(-0.00258578643762689,0.071,0.00966));
#953=CARTESIAN_POINT('',(-0.012,0.0615857864376269,0.00966));
#954=CARTESIAN_POINT('',(-0.012,-0.0025857864376269,0.00966));
#955=CARTESIAN_POINT('',(-0.00258578643762692,-0.012,0.00966));
#956=CARTESIAN_POINT('',(0.0843357864376269,-0.012,0.00966));
#957=CARTESIAN_POINT('',(0.09375,-0.00258578643762691,0.00966));
#958=CARTESIAN_POINT('',(0.09375,0.0615857864376269,0.00966));
#959=CARTESIAN_POINT('',(0.0843357864376269,0.071,0.00966));
#960=CARTESIAN_POINT('',(0.09375,0.0615857864376269,0.00966));
#961=CARTESIAN_POINT('',(-0.012,0.0615857864376269,0.00966));
#962=CARTESIAN_POINT('',(-0.00258578643762689,0.071,0.00966));
#963=CARTESIAN_POINT('',(-0.00258578643762692,-0.012,0.00966));
#964=CARTESIAN_POINT('',(-0.012,-0.0025857864376269,0.00966));
#965=CARTESIAN_POINT('',(0.0843357864376269,-0.012,0.00966));
#966=CARTESIAN_POINT('',(0.09375,-0.00258578643762691,0.00966));
#967=MECHANICAL_DESIGN_GEOMETRIC_PRESENTATION_REPRESENTATION('',(#572),
#968);
#968=(
GEOMETRIC_REPRESENTATION_CONTEXT(3)
GLOBAL_UNCERTAINTY_ASSIGNED_CONTEXT((#969))
GLOBAL_UNIT_ASSIGNED_CONTEXT((#972,#971,#970))
REPRESENTATION_CONTEXT('Part 1','TOP_LEVEL_ASSEMBLY_PART')
);
#969=UNCERTAINTY_MEASURE_WITH_UNIT(LENGTH_MEASURE(1.E-8),#972,
'DISTANCE_ACCURACY_VALUE','Maximum Tolerance applied to model');
#970=(
NAMED_UNIT(*)
SI_UNIT($,.STERADIAN.)
SOLID_ANGLE_UNIT()
);
#971=(
NAMED_UNIT(*)
PLANE_ANGLE_UNIT()
SI_UNIT($,.RADIAN.)
);
#972=(
LENGTH_UNIT()
NAMED_UNIT(*)
SI_UNIT($,.METRE.)
);
#973=PRODUCT_DEFINITION_SHAPE('','',#974);
#974=PRODUCT_DEFINITION('','',#976,#975);
#975=PRODUCT_DEFINITION_CONTEXT('',#982,'design');
#976=PRODUCT_DEFINITION_FORMATION_WITH_SPECIFIED_SOURCE('','',#978,
 .NOT_KNOWN.);
#977=PRODUCT_RELATED_PRODUCT_CATEGORY('','',(#978));
#978=PRODUCT('Part 1','Part 1','Part 1',(#980));
#979=PRODUCT_CATEGORY('','');
#980=PRODUCT_CONTEXT('',#982,'mechanical');
#981=APPLICATION_PROTOCOL_DEFINITION('international standard',
'ap242_managed_model_based_3d_engineering',2020,#982);
#982=APPLICATION_CONTEXT('managed model based 3d engineering');
ENDSEC;
END-ISO-10303-21;
